<svg xmlns="http://www.w3.org/2000/svg" viewBox="0 0 129.61 47.79"><defs><style>.cls-1{fill:#7f2f20;}</style></defs><g id="Layer_2" data-name="Layer 2"><g id="Layer_1-2" data-name="Layer 1"><path class="cls-1" d="M4.59,12.17a8.69,8.69,0,0,1-2.81-.33A2.38,2.38,0,0,1,0,9.48,2.34,2.34,0,0,1,1.86,7.36a14.68,14.68,0,0,1,2.26-.31c1.25-.17,4.85-.72,6.12-.78,1.09-.08,1.8-1.14,3-.75a7,7,0,0,0,3-.2c1.85-.23,7.51-1.36,9.4-1.43,1.5-.05,4-1,5-.71s.06,1.45-.15,2.28a3.45,3.45,0,0,1-2.59,2c-.9.19-2.35.61-3.29.79-1.71.32-7.12,1.69-8.88,2.08.09.47.18.7.22,1.06,1.32,8.36,2,19.1,2.75,27.55.14,2,0,4.11,0,6.12a3.87,3.87,0,0,1-.21,1.12,2.34,2.34,0,0,1-3.94.89,3.5,3.5,0,0,1-.93-1.51,51.59,51.59,0,0,1-1.78-6.42,160.13,160.13,0,0,1-2-25.61c0-.3.09-1.71,0-2C8.81,11.64,5.51,12.18,4.59,12.17Z"/><path class="cls-1" d="M37.25,39.15c1.16-1.92,1.32-4.3,1.81-6.55a74,74,0,0,0,1.61-17.52c-.09-1.8,0-3.48,0-5.29a3.74,3.74,0,0,1,.13-1.09,1.72,1.72,0,0,1,1.72-1.53A1.78,1.78,0,0,1,44.3,8.58,23.82,23.82,0,0,1,45,12.09a81.51,81.51,0,0,1-.46,22.27,27.72,27.72,0,0,1-2.34,7.09,22.45,22.45,0,0,1-2.28,3.43c-2.44,2.77-6.05,2.78-8.71.09a9.4,9.4,0,0,1-2.37-3.9c-1-3-2.05-5.85-2.74-8.82a69.38,69.38,0,0,1-2-16c0-1.39.22-2.66.34-3.93A5.75,5.75,0,0,1,25,10.58,2.26,2.26,0,0,1,27.36,9,2.41,2.41,0,0,1,29.51,11c.22.83.26,1.61.42,2.44.63,5.2,1.14,7.9,1.9,13.15.45,4.07.51,6.93,1.74,10.84.21.59,1.35,3,2,3.15S37,39.64,37.25,39.15Z"/><path class="cls-1" d="M54.4,14.57a9.76,9.76,0,0,0,2,4.82c.85,1.34,2,2.54,2.9,3.82,1.43,2,2.91,3.93,4.1,6a20.87,20.87,0,0,1,2.73,7.44,11.67,11.67,0,0,1-.6,5.8,8,8,0,0,1-9.07,4.62,7,7,0,0,1-3.74-2.45c-.65-1-1.37-2.16-2-3.33a1.9,1.9,0,0,1,.59-2.43,1.53,1.53,0,0,1,2.12.25c.76.86,1.52,1.6,2.35,2.4a2.87,2.87,0,0,0,2.54.41,1.81,1.81,0,0,0,1.54-1.7,6.5,6.5,0,0,0,0-2.11,19.44,19.44,0,0,0-3.25-7l-4.38-5.6a19.91,19.91,0,0,1-3.7-7.57,16.94,16.94,0,0,1,.26-8.85A8.47,8.47,0,0,1,50.64,5.8a5.53,5.53,0,0,1,6.47-1.6,8.76,8.76,0,0,1,5.24,8.39,7.4,7.4,0,0,1-.55,2c-.71,1.42-2.15,1.56-3.12.16-.59-.87-1.17-1.8-1.88-2.66a20.4,20.4,0,0,0-1.59-1.66A5.92,5.92,0,0,0,54.4,14.57Z"/><path class="cls-1" d="M67.69,10.18a9,9,0,0,1-2.78-.56,2.08,2.08,0,0,1-1.56-2.25,2.34,2.34,0,0,1,2-2,16.19,16.19,0,0,1,2.28-.12c1.26-.07,2.39-.19,3.67-.14,1.08,0,1.89-1,3-.49a7.14,7.14,0,0,0,3,0c1.87-.07,3.78-.21,5.67-.11a12.12,12.12,0,0,1,2.78.68,1.65,1.65,0,0,1,1.06,2.06,1.82,1.82,0,0,1-2.06,1.06,14.79,14.79,0,0,0-2.9,0c-1.73.18-3.39.48-5.17.72,0,.48,0,.85,0,1.21,1.06,8.4,1.59,16.91,2,25.37.09,2-.11,4.12-.21,6.12a3.69,3.69,0,0,1-.24,1.11,2.35,2.35,0,0,1-4,.78,3.7,3.7,0,0,1-.88-1.54,51.11,51.11,0,0,1-1.58-6.47,151.72,151.72,0,0,1-1.35-25c0-.18,0-.24,0-.54A20.93,20.93,0,0,1,67.69,10.18Z"/><path class="cls-1" d="M129.48,35.89a2.6,2.6,0,0,1,.07,1.38,3.05,3.05,0,0,1-4.81,2.3A6.19,6.19,0,0,1,123,38c-1.89-2.78-3.84-5.57-5.61-8.48-2.37-3.85-4.55-7.76-6.8-11.73a1.16,1.16,0,0,0-.57-.51c0,.84.08,1.62.13,2.46.28,5.45.57,11,.73,16.43a31.62,31.62,0,0,1-.14,4.15,6.69,6.69,0,0,1-.28,1.58,2,2,0,0,1-1.72,1.71,2.05,2.05,0,0,1-2-1.33,6,6,0,0,1-.7-1.89,57.59,57.59,0,0,1-1.64-10.73,171.11,171.11,0,0,1,.15-21.47c0-.78.09-1.63.11-2.41a7.42,7.42,0,0,1,0-1.63,2.87,2.87,0,0,1,4.83-1.81A9.44,9.44,0,0,1,111,4c1.85,3.15,3.76,6.29,5.6,9.44s3.77,6.48,5.74,9.74c.13.18.19.23.32.41h.24c-.06-1.26-.13-2.52-.19-3.78-.25-4.74-.5-9.59-.76-14.45a11.42,11.42,0,0,1,.22-2.84A4,4,0,0,1,122.79.9a2.11,2.11,0,0,1,2.3-.84,1.91,1.91,0,0,1,1.71,1.53,23.22,23.22,0,0,1,.53,3.4C127.81,15.24,128.53,25.61,129.48,35.89Z"/><path class="cls-1" d="M91.61,3.75A3.12,3.12,0,0,1,94.51,5a5.31,5.31,0,0,1,.73,1.54,14.72,14.72,0,0,1,.47,2.69A208.68,208.68,0,0,1,98,39.59a8.68,8.68,0,0,1-.15,1.51,2.32,2.32,0,0,1-2.27,1.34,2.42,2.42,0,0,1-2.54-1,2.63,2.63,0,0,1-.65-1.72,50.59,50.59,0,0,1-1.18-6.27c-1-8.32-1.79-16.59-2.68-24.85-.09-1.2.26-2.29.27-3.38A3.86,3.86,0,0,1,91.61,3.75Z"/></g></g></svg>